<?xml version="1.0" encoding="UTF-8" standalone="no"?>
<!-- Created with Inkscape (http://www.inkscape.org/) -->

<svg
   xmlns:dc="http://purl.org/dc/elements/1.1/"
   xmlns:cc="http://creativecommons.org/ns#"
   xmlns:rdf="http://www.w3.org/1999/02/22-rdf-syntax-ns#"
   xmlns:svg="http://www.w3.org/2000/svg"
   xmlns="http://www.w3.org/2000/svg"
   xmlns:sodipodi="http://sodipodi.sourceforge.net/DTD/sodipodi-0.dtd"
   xmlns:inkscape="http://www.inkscape.org/namespaces/inkscape"
   width="500"
   height="500"
   viewBox="0 0 500 500"
   id="svg2"
   version="1.1"
   inkscape:version="0.91 r13725"
   sodipodi:docname="app_icon.svg"
   inkscape:export-filename="/home/ryan/Code/jtcTunerGui/images/app_icon.png"
   inkscape:export-xdpi="300"
   inkscape:export-ydpi="300">
  <sodipodi:namedview
     id="base"
     pagecolor="#ffffff"
     bordercolor="#666666"
     borderopacity="1.0"
     inkscape:pageopacity="0.0"
     inkscape:pageshadow="2"
     inkscape:zoom="0.49497475"
     inkscape:cx="663.5029"
     inkscape:cy="380.87802"
     inkscape:document-units="px"
     inkscape:current-layer="layer1"
     showgrid="false"
     units="px"
     width="500px"
     inkscape:window-width="1615"
     inkscape:window-height="1026"
     inkscape:window-x="1985"
     inkscape:window-y="24"
     inkscape:window-maximized="1" />
  <defs
     id="defs4">
    <inkscape:perspective
       id="perspective4160"
       inkscape:persp3d-origin="250 : 166.66667 : 1"
       inkscape:vp_z="500 : 250 : 1"
       inkscape:vp_y="0 : 1000 : 0"
       inkscape:vp_x="0 : 250 : 1"
       sodipodi:type="inkscape:persp3d" />
  </defs>
  <metadata
     id="metadata7">
    <rdf:RDF>
      <cc:Work
         rdf:about="">
        <dc:format>image/svg+xml</dc:format>
        <dc:type
           rdf:resource="http://purl.org/dc/dcmitype/StillImage" />
        <dc:title></dc:title>
      </cc:Work>
    </rdf:RDF>
  </metadata>
  <g
     transform="translate(0,-552.3622)"
     id="layer1"
     inkscape:groupmode="layer"
     inkscape:label="Layer 1">
    <text
       sodipodi:linespacing="125%"
       id="text3336"
       y="1024.0779"
       x="13.637059"
       style="font-style:normal;font-weight:normal;font-size:40px;line-height:125%;font-family:Sans;letter-spacing:0px;word-spacing:0px;fill:#000000;fill-opacity:1;stroke:none;stroke-width:64;stroke-linecap:butt;stroke-linejoin:round;stroke-opacity:1;stroke-miterlimit:4;stroke-dasharray:none;"
       xml:space="preserve"><tspan
         id="tspan3340"
         y="1024.0779"
         x="13.637059"
         sodipodi:role="line" /></text>
    <rect
       rx="100"
       y="552.36218"
       x="0"
       height="500"
       width="500"
       id="rect4158"
       style="opacity:0.82999998;fill:#b1b1b1;fill-opacity:1;fill-rule:nonzero;stroke:none;stroke-width:3;stroke-miterlimit:4;stroke-dasharray:none;stroke-opacity:1" />
    <path
       id="path4170"
       d="m 336.76142,892.34805 a 125,125 0 0 1 -176.74729,-3.22445 125,125 0 0 1 3.22445,-176.74729 125,125 0 0 1 176.74729,3.22445 125,125 0 0 1 -3.22445,176.74729 z"
       style="opacity:0.82999998;fill:#5a5a5a;fill-opacity:1;fill-rule:nonzero;stroke:none;stroke-width:64;stroke-linejoin:round;stroke-miterlimit:4;stroke-dasharray:none;stroke-opacity:1"
       inkscape:connector-curvature="0" />
    <rect
       ry="5"
       rx="10"
       y="258.36948"
       x="743.27576"
       height="59.484631"
       width="15.714284"
       id="rect4174"
       style="opacity:0.82999998;fill:#ffffff;fill-opacity:0.93670888;fill-rule:nonzero;stroke:none;stroke-width:64;stroke-linejoin:round;stroke-miterlimit:4;stroke-dasharray:none;stroke-opacity:1"
       transform="matrix(0.69409131,0.71988697,-0.71988697,0.69409131,0,0)" />
    <path
       style="opacity:0.82999998;fill:#ffffff;fill-opacity:1;fill-rule:nonzero;stroke:none;stroke-width:64;stroke-linejoin:round;stroke-miterlimit:4;stroke-dasharray:none;stroke-opacity:1"
       id="path3161"
       d="M444.992822391 803.230251459C444.992822391 803.230251459 444.329547496 818.40711551 444.329547496 818.40711551C444.329547496 818.40711551 444.329547496 818.40711551 444.329547496 818.40711551C444.329547496 818.40711551 404.480549446 814.946457059 404.480549446 814.946457059C404.480549446 814.946457059 404.480549446 814.946457059 404.480549446 814.946457059C404.480549446 814.946457059 404.996923882 802.734210625 404.996923882 802.734210625C404.996923882 802.734210625 404.996923882 802.734210625 404.996923882 802.734210625C404.996923882 802.734210625 444.992822391 803.230251459 444.992822391 803.230251459C444.992822391 803.230251459 444.992822391 803.230251459 444.992822391 803.230251459M427.779794641 882.464610596C427.779794641 882.464610596 421.035985773 895.997471486 421.035985773 895.997471486C421.035985773 895.997471486 421.035985773 895.997471486 421.035985773 895.997471486C421.035985773 895.997471486 385.981280625 876.73382418 385.981280625 876.73382418C385.981280625 876.73382418 385.981280625 876.73382418 385.981280625 876.73382418C385.981280625 876.73382418 391.409981627 865.816565435 391.409981627 865.816565435C391.409981627 865.816565435 391.409981627 865.816565435 391.409981627 865.816565435C391.409981627 865.816565435 427.779794641 882.464610596 427.779794641 882.464610596C427.779794641 882.464610596 427.779794641 882.464610596 427.779794641 882.464610596M379.767136395 947.902528665C379.767136395 947.902528665 368.056240781 957.551007191 368.056240781 957.551007191C368.056240781 957.551007191 368.056240781 957.551007191 368.056240781 957.551007191C368.056240781 957.551007191 343.865454391 925.696255933 343.865454391 925.696255933C343.865454391 925.696255933 343.865454391 925.696255933 343.865454391 925.696255933C343.865454391 925.696255933 353.288227712 917.922770151 353.288227712 917.922770151C353.288227712 917.922770151 353.288227712 917.922770151 353.288227712 917.922770151C353.288227712 917.922770151 379.767136395 947.902528665 379.767136395 947.902528665C379.767136395 947.902528665 379.767136395 947.902528665 379.767136395 947.902528665M309.400462759 988.08381336C309.400462759 988.08381336 294.824629292 992.129793194 294.824629292 992.129793194C294.824629292 992.129793194 294.824629292 992.129793194 294.824629292 992.129793194C294.824629292 992.129793194 285.549141191 953.221111786 285.549141191 953.221111786C285.549141191 953.221111786 285.549141191 953.221111786 285.549141191 953.221111786C285.549141191 953.221111786 297.300125508 949.958986705 297.300125508 949.958986705C297.300125508 949.958986705 297.300125508 949.958986705 297.300125508 949.958986705C297.300125508 949.958986705 309.400462759 988.08381336 309.400462759 988.08381336C309.400462759 988.08381336 309.400462759 988.08381336 309.400462759 988.08381336M228.604418914 996.174145863C228.604418914 996.174145863 213.614484408 993.927366452 213.614484408 993.927366452C213.614484408 993.927366452 213.614484408 993.927366452 213.614484408 993.927366452C213.614484408 993.927366452 220.973246301 954.61110508 220.973246301 954.61110508C220.973246301 954.61110508 220.973246301 954.61110508 220.973246301 954.61110508C220.973246301 954.61110508 233.046506077 956.422580722 233.046506077 956.422580722C233.046506077 956.422580722 233.046506077 956.422580722 233.046506077 956.422580722C233.046506077 956.422580722 228.604418914 996.174145863 228.604418914 996.174145863C228.604418914 996.174145863 228.604418914 996.174145863 228.604418914 996.174145863M151.698951605 970.759902422C151.698951605 970.759902422 138.930543119 962.629606358 138.930543119 962.629606358C138.930543119 962.629606358 138.930543119 962.629606358 138.930543119 962.629606358C138.930543119 962.629606358 161.527907711 929.625380894 161.527907711 929.625380894C161.527907711 929.625380894 161.527907711 929.625380894 161.527907711 929.625380894C161.527907711 929.625380894 171.813313704 936.18631765 171.813313704 936.18631765C171.813313704 936.18631765 171.813313704 936.18631765 171.813313704 936.18631765C171.813313704 936.18631765 151.698951605 970.759902422 151.698951605 970.759902422C151.698951605 970.759902422 151.698951605 970.759902422 151.698951605 970.759902422M91.6186057306 916.100264472C91.6186057306 916.100264472 83.2669453242 903.468133407 83.2669453242 903.468133407C83.2669453242 903.468133407 83.2669453242 903.468133407 83.2669453242 903.468133407C83.2669453242 903.468133407 117.33829833 882.514301471 117.33829833 882.514301471C117.33829833 882.514301471 117.33829833 882.514301471 117.33829833 882.514301471C117.33829833 882.514301471 124.058291487 892.699701421 124.058291487 892.699701421C124.058291487 892.699701421 124.058291487 892.699701421 124.058291487 892.699701421C124.058291487 892.699701421 91.6186057306 916.100264472 91.6186057306 916.100264472C91.6186057306 916.100264472 91.6186057306 916.100264472 91.6186057306 916.100264472M59.0692340665 841.951025677C59.0692340665 841.951025677 56.3601548954 825.29804368 56.3601548954 825.29804368C56.3601548954 825.29804368 56.3601548954 825.29804368 56.3601548954 825.29804368C56.3601548954 825.29804368 96.111720036 820.855956518 96.111720036 820.855956518C96.111720036 820.855956518 96.111720036 820.855956518 96.111720036 820.855956518C96.111720036 820.855956518 98.1933228904 833.630829705 98.1933228904 833.630829705C98.1933228904 833.630829705 98.1933228904 833.630829705 98.1933228904 833.630829705C98.1933228904 833.630829705 59.0692340665 841.951025677 59.0692340665 841.951025677C59.0692340665 841.951025677 59.0692340665 841.951025677 59.0692340665 841.951025677M59.5060696264 760.719200826C59.5060696264 760.719200826 63.8095061364 744.438967425 63.8095061364 744.438967425C63.8095061364 744.438967425 63.8095061364 744.438967425 63.8095061364 744.438967425C63.8095061364 744.438967425 101.934332791 756.539304676 101.934332791 756.539304676C101.934332791 756.539304676 101.934332791 756.539304676 101.934332791 756.539304676C101.934332791 756.539304676 98.6301584503 769.039396797 98.6301584503 769.039396797C98.6301584503 769.039396797 98.6301584503 769.039396797 98.6301584503 769.039396797C98.6301584503 769.039396797 59.5060696264 760.719200826 59.5060696264 760.719200826C59.5060696264 760.719200826 59.5060696264 760.719200826 59.5060696264 760.719200826M93.8738349439 685.540238264C93.8738349439 685.540238264 103.433653943 673.756690953 103.433653943 673.756690953C103.433653943 673.756690953 103.433653943 673.756690953 103.433653943 673.756690953C103.433653943 673.756690953 133.413412457 700.235599636 133.413412457 700.235599636C133.413412457 700.235599636 133.413412457 700.235599636 133.413412457 700.235599636C133.413412457 700.235599636 125.728586201 709.731024654 125.728586201 709.731024654C125.728586201 709.731024654 125.728586201 709.731024654 125.728586201 709.731024654C125.728586201 709.731024654 93.8738349439 685.540238264 93.8738349439 685.540238264C93.8738349439 685.540238264 93.8738349439 685.540238264 93.8738349439 685.540238264M155.006418545 632.072616677C155.006418545 632.072616677 168.488322001 625.227459184 168.488322001 625.227459184C168.488322001 625.227459184 168.488322001 625.227459184 168.488322001 625.227459184C168.488322001 625.227459184 185.136367162 661.597272199 185.136367162 661.597272199C185.136367162 661.597272199 185.136367162 661.597272199 185.136367162 661.597272199C185.136367162 661.597272199 174.270065851 667.127321825 174.270065851 667.127321825C174.270065851 667.127321825 174.270065851 667.127321825 174.270065851 667.127321825C174.270065851 667.127321825 155.006418545 632.072616677 155.006418545 632.072616677C155.006418545 632.072616677 155.006418545 632.072616677 155.006418545 632.072616677M232.411006593 608.166725136C232.411006593 608.166725136 247.582178585 607.388578061 247.582178585 607.388578061C247.582178585 607.388578061 247.582178585 607.388578061 247.582178585 607.388578061C247.582178585 607.388578061 248.078219419 647.38447657 248.078219419 647.38447657C248.078219419 647.38447657 248.078219419 647.38447657 248.078219419 647.38447657C248.078219419 647.38447657 235.871665043 648.015723186 235.871665043 648.015723186C235.871665043 648.015723186 235.871665043 648.015723186 235.871665043 648.015723186C235.871665043 648.015723186 232.411006593 608.166725136 232.411006593 608.166725136C232.411006593 608.166725136 232.411006593 608.166725136 232.411006593 608.166725136M313.015941828 617.83579683C313.015941828 617.83579683 327.120955269 623.272330574 327.120955269 623.272330574C327.120955269 623.272330574 327.120955269 623.272330574 327.120955269 623.272330574C327.120955269 623.272330574 311.364630038 660.037245226 311.364630038 660.037245226C311.364630038 660.037245226 311.364630038 660.037245226 311.364630038 660.037245226C311.364630038 660.037245226 299.988999108 655.654038653 299.988999108 655.654038653C299.988999108 655.654038653 299.988999108 655.654038653 299.988999108 655.654038653C299.988999108 655.654038653 313.015941828 617.83579683 313.015941828 617.83579683C313.015941828 617.83579683 313.015941828 617.83579683 313.015941828 617.83579683M382.60038834 659.401542979C382.60038834 659.401542979 393.334953146 670.165035868 393.334953146 670.165035868C393.334953146 670.165035868 393.334953146 670.165035868 393.334953146 670.165035868C393.334953146 670.165035868 364.019434279 697.377507187 364.019434279 697.377507187C364.019434279 697.377507187 364.019434279 697.377507187 364.019434279 697.377507187C364.019434279 697.377507187 355.387917021 688.717061847 355.387917021 688.717061847C355.387917021 688.717061847 355.387917021 688.717061847 355.387917021 688.717061847C355.387917021 688.717061847 382.60038834 659.401542979 382.60038834 659.401542979C382.60038834 659.401542979 382.60038834 659.401542979 382.60038834 659.401542979M429.306582649 725.746937727C429.306582649 725.746937727 434.705572876 739.866440015 434.705572876 739.866440015C434.705572876 739.866440015 434.705572876 739.866440015 434.705572876 739.866440015C434.705572876 739.866440015 396.887331053 752.893382736 396.887331053 752.893382736C396.887331053 752.893382736 396.887331053 752.893382736 396.887331053 752.893382736C396.887331053 752.893382736 392.541667997 741.503262958 392.541667997 741.503262958C392.541667997 741.503262958 392.541667997 741.503262958 392.541667997 741.503262958C392.541667997 741.503262958 429.306582649 725.746937727 429.306582649 725.746937727C429.306582649 725.746937727 429.306582649 725.746937727 429.306582649 725.746937727M445.018866041 803.594014694C445.018866041 803.594014694 445.14287625 813.592989322 445.14287625 813.592989322C445.14287625 813.592989322 445.14287625 813.592989322 445.14287625 813.592989322C445.14287625 813.592989322 405.146977741 814.089030155 405.146977741 814.089030155C405.146977741 814.089030155 405.146977741 814.089030155 405.146977741 814.089030155C405.146977741 814.089030155 405.022967532 804.090055528 405.022967532 804.090055528C405.022967532 804.090055528 405.022967532 804.090055528 405.022967532 804.090055528C405.022967532 804.090055528 445.018866041 803.594014694 445.018866041 803.594014694C445.018866041 803.594014694 445.018866041 803.594014694 445.018866041 803.594014694" />
  </g>
</svg>
